<svg width="24" height="24" viewBox="0 0 24 24" fill="none" xmlns="http://www.w3.org/2000/svg">
<path opacity="0.9" d="M17.5711 18.9052L5.9552 7.28932L5.95502 12.8329C5.95516 13.3184 5.56149 13.7121 5.07603 13.7119C4.59039 13.7119 4.19673 13.3183 4.19708 12.833L4.19716 5.1672C4.19701 4.6817 4.59072 4.288 5.07614 4.28821L12.7421 4.28796C12.9849 4.28789 13.2046 4.38632 13.3637 4.54536C13.5227 4.70439 13.6211 4.92409 13.621 5.16691C13.6212 5.65241 13.2275 6.04607 12.7421 6.04586L7.19834 6.04618L18.8142 17.6621C19.1575 18.0053 19.1575 18.562 18.8143 18.9053C18.471 19.2485 17.9144 19.2485 17.5711 18.9052Z" fill="white"/>
</svg>
