<svg width="24" height="24" viewBox="0 0 24 24" fill="none" xmlns="http://www.w3.org/2000/svg">
<path opacity="0.9" d="M6.42892 5.0948L18.0448 16.7107L18.045 11.1671C18.0448 10.6816 18.4385 10.2879 18.924 10.2881C19.4096 10.2881 19.8033 10.6817 19.8029 11.167L19.8028 18.8328C19.803 19.3183 19.4093 19.712 18.9239 19.7118L11.2579 19.712C11.0151 19.7121 10.7954 19.6137 10.6363 19.4546C10.4773 19.2956 10.3789 19.0759 10.379 18.8331C10.3788 18.3476 10.7725 17.9539 11.2579 17.9541L16.8017 17.9538L5.18578 6.33794C4.84251 5.99467 4.84248 5.43799 5.18574 5.09472C5.52901 4.75146 6.08562 4.75149 6.42892 5.0948Z" fill="white"/>
</svg>
