<svg width="28" height="22" viewBox="0 0 28 22" fill="none" xmlns="http://www.w3.org/2000/svg">
<path d="M8.31247 12.6923C8.31247 15.7299 10.8588 18.1923 13.9999 18.1923C17.1411 18.1923 19.6875 15.7299 19.6875 12.6923C19.6875 9.65474 17.1411 7.19233 14 7.19233C10.8589 7.19233 8.31247 9.65474 8.31247 12.6923ZM26.25 3.38463H20.125C19.6875 1.69229 19.25 0 17.5 0H10.5C8.75001 0 8.31247 1.69229 7.87499 3.38463H1.74998C0.787499 3.38463 0 4.14617 0 5.07693V20.3077C0 21.2385 0.787499 22 1.74998 22H26.25C27.2124 22 28 21.2385 28 20.3077V5.07693C27.9999 4.14617 27.2124 3.38463 26.25 3.38463ZM14 20.202C9.71117 20.202 6.23437 16.8398 6.23437 12.6923C6.23437 8.54487 9.71112 5.18268 14 5.18268C18.2889 5.18268 21.7656 8.54482 21.7656 12.6923C21.7656 16.8398 18.2889 20.202 14 20.202ZM26.25 8.46156H22.75V6.76927H26.25V8.46156Z" fill="#B4EC51"/>
</svg>
