<svg width="32" height="42" viewBox="0 0 32 42" fill="none" xmlns="http://www.w3.org/2000/svg">
<path d="M23.7138 0H2.57514C1.15579 0 0 1.1566 0 2.57568V39.4239C0 40.8451 1.15579 41.9999 2.57514 41.9999H28.4681C29.8887 41.9999 31.0434 40.8451 31.0434 39.4239V7.96417L23.7138 0ZM24.3216 3.85419L27.5343 7.34576H24.3216V3.85419ZM28.8806 39.424C28.8806 39.6508 28.6949 39.8371 28.467 39.8371H2.57514C2.34755 39.8371 2.16289 39.6508 2.16289 39.424V2.57568C2.16289 2.34827 2.34755 2.16397 2.57514 2.16397H22.1577V8.42765C22.1577 9.02402 22.6435 9.50749 23.2402 9.50749H28.8806V39.424ZM5.97826 11.5035H24.3447C24.7922 11.5035 25.1551 11.8664 25.1551 12.3138C25.1551 12.7612 24.7922 13.1241 24.3447 13.1241H5.97826C5.53094 13.1241 5.16796 12.7612 5.16796 12.3138C5.16796 11.8665 5.53094 11.5035 5.97826 11.5035ZM25.1551 17.759C25.1551 18.2064 24.7922 18.5694 24.3447 18.5694H5.97826C5.53094 18.5694 5.16796 18.2065 5.16796 17.759C5.16796 17.3116 5.53094 16.9487 5.97826 16.9487H24.3447C24.7922 16.9487 25.1551 17.3117 25.1551 17.759ZM25.1551 23.026C25.1551 23.4734 24.7922 23.8363 24.3447 23.8363H5.97826C5.53094 23.8363 5.16796 23.4734 5.16796 23.026C5.16796 22.5786 5.53094 22.2157 5.97826 22.2157H24.3447C24.7922 22.2157 25.1551 22.5786 25.1551 23.026ZM25.1551 28.3826C25.1551 28.83 24.7922 29.1929 24.3447 29.1929H5.97826C5.53094 29.1929 5.16796 28.83 5.16796 28.3826C5.16796 27.9352 5.53094 27.5723 5.97826 27.5723H24.3447C24.7922 27.5723 25.1551 27.9352 25.1551 28.3826Z" fill="#00A9FF"/>
</svg>
