<svg width="22" height="24" viewBox="0 0 22 24" fill="none" xmlns="http://www.w3.org/2000/svg">
<path d="M3.13898 3.13884C5.16309 1.11469 7.85428 0 10.7168 0C13.5794 0 16.2706 1.11469 18.2947 3.13884C20.3189 5.16295 21.4336 7.85419 21.4336 10.7167V23.5219C21.4336 23.7859 21.2196 24 20.9555 24H0.47817C0.21417 24 9.34601e-05 23.7859 9.34601e-05 23.5219V10.7167C9.34601e-05 7.85419 1.11478 5.16295 3.13898 3.13884ZM0.956247 23.0438H20.4774V10.7167C20.4774 5.33475 16.0989 0.956156 10.7168 0.956156C5.33479 0.956156 0.956247 5.3347 0.956247 10.7167V23.0438Z" fill="#00A9FF"/>
<path d="M2.60098 12.4832C2.96969 11.9135 3.59524 11.5733 4.27437 11.5733H6.00762C5.95301 11.2828 5.92465 10.9868 5.92465 10.6894C5.92465 10.3339 5.96388 9.98732 6.03771 9.65362H4.34407C3.65463 9.65362 3.02308 9.30539 2.65465 8.72207C2.28757 8.14087 2.24454 7.42387 2.53947 6.80414C3.26444 5.28093 4.39873 3.99178 5.81969 3.07603C7.27934 2.13539 8.97265 1.63818 10.7167 1.63818C12.4607 1.63818 14.154 2.13539 15.6136 3.07603C17.0346 3.99182 18.1689 5.28098 18.8938 6.80409C19.1887 7.42382 19.1457 8.14078 18.7786 8.72203C18.4102 9.30534 17.7786 9.65357 17.0892 9.65357H15.3956C15.4694 9.98728 15.5087 10.3338 15.5087 10.6894C15.5087 10.9868 15.4804 11.2827 15.4257 11.5733H17.1589C17.838 11.5733 18.4637 11.9135 18.8323 12.4832C19.2029 13.0559 19.257 13.7699 18.977 14.3935C17.5185 17.6418 14.2761 19.7407 10.7167 19.7407C7.15727 19.7407 3.91488 17.6418 2.45632 14.3936C2.17633 13.77 2.23038 13.0559 2.60098 12.4832ZM17.0892 8.69746C17.4486 8.69746 17.778 8.51578 17.9701 8.21151C18.1639 7.90476 18.1858 7.54157 18.0304 7.21509C16.6945 4.40807 13.8237 2.59434 10.7167 2.59434C7.60966 2.59434 4.73885 4.40812 3.40296 7.215C3.24757 7.54157 3.26951 7.90476 3.46319 8.21146C3.65538 8.51578 3.98468 8.69742 4.34416 8.69742H6.3588C7.11635 7.04667 8.78473 5.89739 10.7167 5.89739C12.6486 5.89739 14.317 7.04671 15.0746 8.69742H17.0892V8.69746ZM8.58705 14.3068H15.3716V13.2971H6.0618V14.3068H6.60616C6.81433 14.3068 6.99855 14.4414 7.06169 14.6398C7.57057 16.237 9.0394 17.3101 10.7167 17.3101C12.165 17.3101 13.4573 16.5097 14.1109 15.263H8.58705C8.32305 15.263 8.10897 15.0489 8.10897 14.7849C8.10893 14.5208 8.32305 14.3068 8.58705 14.3068ZM14.5525 10.6894C14.5525 8.57437 12.8318 6.85364 10.7167 6.85364C8.60168 6.85364 6.8809 8.57437 6.8809 10.6894C6.8809 11.2615 7.00957 11.8271 7.25496 12.341H14.1784C14.4238 11.8271 14.5525 11.2615 14.5525 10.6894ZM3.32857 14.0019C4.63315 16.9072 7.53316 18.7845 10.7167 18.7845C13.9002 18.7845 16.8002 16.9072 18.1048 14.0019C18.2536 13.6706 18.2262 13.3064 18.0296 13.0028C17.835 12.702 17.5177 12.5296 17.1589 12.5296H16.2295C16.2909 12.61 16.3277 12.7101 16.3277 12.8191V14.7849C16.3277 15.0489 16.1137 15.263 15.8496 15.263H15.1632C14.4381 17.0733 12.6933 18.2663 10.7166 18.2663C8.74005 18.2663 6.99518 17.0733 6.27002 15.263H5.58363C5.31963 15.263 5.10555 15.0489 5.10555 14.7849V12.8191C5.10555 12.7102 5.1424 12.61 5.2038 12.5296H4.27437C3.91572 12.5295 3.59838 12.702 3.40371 13.0028C3.20721 13.3064 3.17979 13.6706 3.32857 14.0019Z" fill="#00A9FF"/>
<path d="M10.0064 3.93164H11.4262C11.6903 3.93164 11.9043 4.14572 11.9043 4.40972C11.9043 4.67372 11.6903 4.8878 11.4262 4.8878H10.0064C9.74242 4.8878 9.52835 4.67372 9.52835 4.40972C9.52835 4.14572 9.74238 3.93164 10.0064 3.93164Z" fill="#00A9FF"/>
<path d="M8.04143 21.2964H8.64204C8.90604 21.2964 9.12012 21.5105 9.12012 21.7745C9.12012 22.0385 8.90604 22.2525 8.64204 22.2525H8.04143C7.77743 22.2525 7.56335 22.0385 7.56335 21.7745C7.56335 21.5105 7.77743 21.2964 8.04143 21.2964Z" fill="#00A9FF"/>
<path d="M2.41614 21.2964H6.12934C6.39334 21.2964 6.60742 21.5105 6.60742 21.7745C6.60742 22.0385 6.39334 22.2525 6.12934 22.2525H2.41614C2.15214 22.2525 1.93806 22.0385 1.93806 21.7745C1.93802 21.5105 2.15214 21.2964 2.41614 21.2964Z" fill="#00A9FF"/>
</svg>
