<svg width="42" height="40" viewBox="0 0 42 40" fill="none" xmlns="http://www.w3.org/2000/svg">
<path d="M41.9491 22.406C41.6388 20.2558 39.9496 18.5667 37.7994 18.2563V16.9837C37.7994 13.4726 35.1303 10.6138 31.8495 10.6138C28.6632 10.6138 25.9955 13.3858 25.8996 16.7934H25.9402L25.8996 16.8004V30.595C25.8996 35.005 22.6026 38.5861 18.5497 38.5861C14.4968 38.5861 11.1998 35.0001 11.1998 30.595V29.4002C12.2148 29.4002 13.2998 28.6645 13.2998 26.6002V24.8397C17.7923 23.691 20.9997 19.8334 20.9997 15.4599V14.0004H19.5997L19.5703 4.89003C19.5601 3.20367 18.35 1.76379 16.6905 1.46359C16.3326 0.366965 15.1534 -0.231876 14.0567 0.126169C12.96 0.484126 12.3612 1.66335 12.7192 2.76005C13.0772 3.85667 14.2564 4.45552 15.3531 4.09747C15.9403 3.90576 16.4126 3.46398 16.6429 2.89086C17.5397 3.14601 18.161 3.96185 18.1682 4.89423L18.1997 14.0004H16.7997V15.4802C16.7439 17.915 15.1115 20.0309 12.7706 20.7028C11.5181 21.1002 10.1732 21.1002 8.92066 20.7028C6.58243 20.0286 4.95373 17.9131 4.89992 15.4802V14.0004H2.79996V4.90053C2.80398 3.95441 3.44027 3.12772 4.35393 2.88176C4.77996 3.96631 6.00451 4.50005 7.08905 4.07402C8.1736 3.64799 8.70734 2.42336 8.28131 1.3389C7.85528 0.254442 6.63065 -0.279388 5.54619 0.146643C4.95855 0.377552 4.50513 0.859407 4.31053 1.46009C2.63292 1.74673 1.40462 3.1986 1.39998 4.90053V14.0004H0V15.4564C0 19.8348 3.20945 23.6938 7.69988 24.8397V26.6002C7.69988 28.6645 8.78486 29.4002 9.79985 29.4002V30.595C9.79985 35.775 13.7247 39.9861 18.5497 39.9861C23.3747 39.9861 27.2996 35.7701 27.2996 30.595V16.834C27.3696 14.1775 29.4121 12.0159 31.8495 12.0159C34.3583 12.0159 36.3994 14.2447 36.3994 16.9858V18.2563C33.721 18.6429 31.8632 21.1276 32.2497 23.806C32.6363 26.4844 35.121 28.3423 37.7994 27.9557C40.4778 27.5692 42.3357 25.0844 41.9491 22.406ZM14.6998 2.80057C14.3132 2.80057 13.9998 2.48715 13.9998 2.10058C13.9998 1.71401 14.3132 1.40059 14.6998 1.40059C15.0863 1.40059 15.3998 1.71401 15.3998 2.10058C15.3998 2.48715 15.0863 2.80057 14.6998 2.80057ZM6.2999 1.40059C6.68647 1.40059 6.99989 1.71401 6.99989 2.10058C6.99989 2.48715 6.68647 2.80057 6.2999 2.80057C5.91333 2.80057 5.59991 2.48715 5.59991 2.10058C5.59991 1.71401 5.91333 1.40059 6.2999 1.40059ZM1.39998 15.4564V15.4004H3.49995V15.4802C3.55244 18.5226 5.57655 21.1777 8.49647 22.0342C10.0266 22.5187 11.6689 22.5187 13.199 22.0342C16.1203 21.1789 18.1463 18.5236 18.1997 15.4802V15.4004H19.5997V15.4564C19.5997 19.3504 16.5981 22.7769 12.4598 23.6056C11.488 23.8002 10.4927 23.8491 9.50655 23.7505C9.18193 23.719 8.85924 23.6702 8.53987 23.6042C4.40153 22.7769 1.39998 19.3504 1.39998 15.4564ZM9.79985 28.0002C9.16986 28.0002 9.09986 27.0202 9.09986 26.6002V25.1148C9.15586 25.1218 9.21326 25.1246 9.26995 25.1302C9.33995 25.1379 9.40995 25.1435 9.47995 25.1498C9.81105 25.1792 10.1449 25.1988 10.4816 25.1995H10.5166C10.8526 25.1995 11.1858 25.1792 11.5148 25.1498C11.5848 25.1435 11.659 25.1379 11.7311 25.1302C11.7864 25.1239 11.8438 25.1218 11.8991 25.1148V26.6002C11.8991 27.0202 11.8291 28.0002 11.1991 28.0002H9.79985ZM37.0994 26.6002C35.1665 26.6002 33.5995 25.0332 33.5995 23.1003C33.5995 21.1673 35.1665 19.6003 37.0994 19.6003C39.0323 19.6003 40.5994 21.1673 40.5994 23.1003C40.5971 25.0323 39.0314 26.5979 37.0994 26.6002Z" fill="#00A9FF"/>
</svg>
