<svg width="24" height="7" viewBox="0 0 24 7" fill="none" xmlns="http://www.w3.org/2000/svg">
<path d="M3.2 0C1.4356 0 0 1.4356 0 3.2C0 4.9644 1.4356 6.4 3.2 6.4C4.9644 6.4 6.4 4.9644 6.4 3.2C6.4 1.4356 4.9644 0 3.2 0ZM3.2 5.6C1.8764 5.6 0.8 4.5236 0.8 3.2C0.8 1.8764 1.8764 0.8 3.2 0.8C4.5236 0.8 5.6 1.8764 5.6 3.2C5.6 4.5236 4.5236 5.6 3.2 5.6Z" fill="#00A9FF"/>
<path d="M20.7996 0C19.0352 0 17.5996 1.4356 17.5996 3.2C17.5996 4.9644 19.0352 6.4 20.7996 6.4C22.564 6.4 23.9996 4.9644 23.9996 3.2C23.9996 1.4356 22.564 0 20.7996 0ZM20.7996 5.6C19.476 5.6 18.3996 4.5236 18.3996 3.2C18.3996 1.8764 19.476 0.8 20.7996 0.8C22.1232 0.8 23.1996 1.8764 23.1996 3.2C23.1996 4.5236 22.1232 5.6 20.7996 5.6Z" fill="#00A9FF"/>
<path d="M11.9998 0C10.2354 0 8.7998 1.4356 8.7998 3.2C8.7998 4.9644 10.2354 6.4 11.9998 6.4C13.7642 6.4 15.1998 4.9644 15.1998 3.2C15.1998 1.4356 13.7642 0 11.9998 0ZM11.9998 5.6C10.6762 5.6 9.5998 4.5236 9.5998 3.2C9.5998 1.8764 10.6762 0.8 11.9998 0.8C13.3234 0.8 14.3998 1.8764 14.3998 3.2C14.3998 4.5236 13.3234 5.6 11.9998 5.6Z" fill="#00A9FF"/>
</svg>
