<svg width="18" height="19" viewBox="0 0 18 19" fill="none" xmlns="http://www.w3.org/2000/svg">
<path d="M10.5552 11.3333L17.3751 3.94519C18.2071 3.04392 18.2071 1.5773 17.3751 0.67588C16.543 -0.225393 15.1892 -0.225244 14.3573 0.676029L7.53749 8.06415V8.0643C7.53735 8.0643 7.53735 8.0643 7.53735 8.0643L6.39394 9.30299C6.25222 9.45652 6.17421 9.66064 6.17421 9.8777C6.17421 10.0287 6.21267 10.1729 6.28325 10.2986L4.54479 12.1819C4.40746 12.3307 4.40746 12.5719 4.54479 12.7205C4.68212 12.8693 4.9046 12.8693 5.04193 12.7205L6.76473 10.8541L8.05769 12.2548L3.68319 16.9939C3.2815 17.4289 2.75085 17.6726 2.18464 17.6843H2.08755C1.64398 17.6727 1.22265 17.5187 0.868474 17.2416L2.80496 15.1437C2.94229 14.9951 2.94229 14.7539 2.80496 14.6051C2.66777 14.4564 2.44516 14.4564 2.30783 14.6051L0.102997 16.9939C-0.0343325 17.1425 -0.0343325 17.3837 0.102997 17.5324C0.64751 18.1223 1.37151 18.4472 2.14166 18.4472C2.15608 18.4472 2.17036 18.4463 2.18464 18.4462H8.99909C9.19314 18.4462 9.35065 18.2757 9.35065 18.0653C9.35065 17.855 9.19314 17.6845 8.99909 17.6845H4.02857C4.08034 17.6357 4.13129 17.5855 4.18032 17.5324L8.59575 12.749C8.68694 12.7895 8.78389 12.8099 8.88098 12.8099C9.07311 12.8099 9.26523 12.7306 9.41149 12.5723L10.555 11.3335C10.555 11.3335 10.555 11.3335 10.5552 11.3333C10.5552 11.3335 10.555 11.3335 10.5552 11.3333ZM14.8546 1.21474C15.4124 0.610271 16.32 0.610271 16.8778 1.21459C17.4357 1.81891 17.4357 2.80231 16.8778 3.40663L10.3065 10.5255L8.28319 8.33358L14.8546 1.21474ZM8.91436 12.0336C8.89595 12.0535 8.86615 12.0535 8.84775 12.0336L8.80449 11.9867C8.80422 11.9864 8.80381 11.9858 8.80339 11.9854L7.0133 10.0463C7.01316 10.046 7.01289 10.0457 7.01261 10.0455L6.89108 9.91386C6.88187 9.90389 6.87734 9.89184 6.87734 9.8777C6.87734 9.86372 6.88187 9.85152 6.89121 9.84155L7.78605 8.87214L9.80933 11.064L8.91436 12.0336Z" fill="#00A9FF"/>
<path d="M14.027 17.6844H11.1895C10.9953 17.6844 10.8379 17.8551 10.8379 18.0653C10.8379 18.2757 10.9953 18.4462 11.1895 18.4462H14.027C14.2212 18.4462 14.3785 18.2757 14.3785 18.0653C14.3785 17.8551 14.2212 17.6844 14.027 17.6844Z" fill="#00A9FF"/>
<path d="M17.6487 17.6844H15.9961C15.802 17.6844 15.6445 17.8551 15.6445 18.0653C15.6445 18.2757 15.802 18.4462 15.9961 18.4462H17.6487C17.8429 18.4462 18.0003 18.2757 18.0003 18.0653C18.0003 17.8551 17.8429 17.6844 17.6487 17.6844Z" fill="#00A9FF"/>
<path d="M3.6753 14.0433C3.76772 14.0433 3.85849 14.0029 3.92386 13.9321C3.98923 13.8609 4.02686 13.763 4.02686 13.6628C4.02686 13.5627 3.98923 13.4644 3.92386 13.3931C3.85849 13.3223 3.76772 13.282 3.6753 13.282C3.58246 13.282 3.49182 13.3223 3.42645 13.3931C3.36108 13.4644 3.32373 13.5623 3.32373 13.6628C3.32373 13.763 3.36108 13.8609 3.42645 13.9321C3.49182 14.0029 3.58246 14.0433 3.6753 14.0433Z" fill="#00A9FF"/>
</svg>
