<svg width="24" height="20" viewBox="0 0 24 20" fill="none" xmlns="http://www.w3.org/2000/svg">
<path d="M22.3902 0.377808H1.60978C0.722109 0.377808 0 1.09992 0 1.98754V16.3723C0 17.26 0.722109 17.9821 1.60978 17.9821H2.41294V19.2472C2.41294 19.4543 2.58084 19.6222 2.78794 19.6222H5.73947C5.94656 19.6222 6.11447 19.4543 6.11447 19.2472V17.9821H17.8856V19.2472C17.8856 19.4543 18.0535 19.6222 18.2606 19.6222H21.2121C21.4192 19.6222 21.5871 19.4543 21.5871 19.2472V17.9821H22.3903C23.2779 17.9821 24 17.26 24 16.3723V1.98754C24 1.09992 23.2779 0.377808 22.3902 0.377808ZM5.36442 18.8722H3.16294V17.9821H5.36447V18.8722H5.36442ZM20.8371 18.8722H18.6355V17.9821H20.8371V18.8722ZM23.25 16.3723C23.25 16.8464 22.8643 17.2321 22.3902 17.2321C22.0851 17.2321 1.60978 17.2321 1.60978 17.2321C1.13573 17.2321 0.75 16.8464 0.75 16.3723V1.98754C0.75 1.51349 1.13573 1.12776 1.60978 1.12776H22.3902C22.8643 1.12776 23.25 1.51349 23.25 1.98754V16.3723Z" fill="#00A9FF"/>
<path d="M18.261 2.10149H2.66529C2.1213 2.10149 1.67871 2.54403 1.67871 3.08802V15.2719C1.67871 15.8159 2.12126 16.2585 2.66529 16.2585H18.261C18.805 16.2585 19.2476 15.816 19.2476 15.2719V3.08802C19.2476 2.54403 18.805 2.10149 18.261 2.10149ZM18.4976 15.2719C18.4976 15.4024 18.3914 15.5085 18.261 15.5085H2.66529C2.53484 15.5085 2.42871 15.4024 2.42871 15.2719V3.08802C2.42871 2.95761 2.53484 2.85149 2.66529 2.85149H18.261C18.3914 2.85149 18.4976 2.95761 18.4976 3.08802V15.2719Z" fill="#00A9FF"/>
<path d="M21.2687 2.72647C20.4878 2.72647 19.8525 3.36177 19.8525 4.14262C19.8525 4.92346 20.4878 5.55876 21.2687 5.55876C22.0495 5.55876 22.6848 4.92346 22.6848 4.14262C22.6848 3.36177 22.0495 2.72647 21.2687 2.72647ZM21.2687 4.80876C20.9014 4.80876 20.6025 4.50993 20.6025 4.14262C20.6025 3.7753 20.9014 3.47647 21.2687 3.47647C21.636 3.47647 21.9348 3.7753 21.9348 4.14262C21.9348 4.50993 21.636 4.80876 21.2687 4.80876Z" fill="#00A9FF"/>
<path d="M21.2687 6.7227C20.4878 6.7227 19.8525 7.358 19.8525 8.13884C19.8525 8.91969 20.4878 9.55498 21.2687 9.55498C22.0495 9.55498 22.6848 8.91969 22.6848 8.13884C22.6848 7.358 22.0495 6.7227 21.2687 6.7227ZM21.2687 8.80498C20.9014 8.80498 20.6025 8.50616 20.6025 8.13884C20.6025 7.77153 20.9014 7.4727 21.2687 7.4727C21.636 7.4727 21.9348 7.77153 21.9348 8.13884C21.9348 8.50616 21.636 8.80498 21.2687 8.80498Z" fill="#00A9FF"/>
<path d="M17.321 10.2687H16.3473L15.3165 8.16398C15.1783 7.88165 14.7784 7.88634 14.6427 8.1645L13.6159 10.2688H12.524C12.4027 10.2688 12.289 10.3274 12.2186 10.4261L11.72 11.1256L10.5341 4.24495C10.4621 3.82786 9.86291 3.83184 9.79452 4.24781L8.56522 11.7181L8.06314 10.4767C8.00586 10.3351 7.86833 10.2423 7.71552 10.2423H6.6207L5.92269 9.17254C5.77273 8.94281 5.43556 8.94689 5.29067 9.17873L4.6257 10.2423H3.60547C3.39838 10.2423 3.23047 10.4102 3.23047 10.6173C3.23047 10.8244 3.39838 10.9923 3.60547 10.9923H4.8335C4.96278 10.9923 5.08292 10.9257 5.15145 10.8161L5.61533 10.0741L6.10348 10.8223C6.17277 10.9284 6.29084 10.9923 6.41755 10.9923H7.46258L8.37064 13.2375C8.51347 13.5909 9.02727 13.5288 9.0883 13.1579L10.173 6.56606L11.1338 12.1396C11.1903 12.4673 11.6158 12.5644 11.8087 12.2935L12.7172 11.0188H13.8501C13.9935 11.0188 14.1243 10.9371 14.1871 10.8082L14.9803 9.18281L15.7766 10.8087C15.8395 10.9373 15.9702 11.0188 16.1134 11.0188H17.3209C17.528 11.0188 17.6959 10.8509 17.6959 10.6438C17.6959 10.4367 17.528 10.2687 17.321 10.2687Z" fill="#00A9FF"/>
</svg>
