<svg width="21" height="24" viewBox="0 0 21 24" fill="none" xmlns="http://www.w3.org/2000/svg">
<path d="M15.8935 13.9974H9.99232V9.79123C9.99232 9.581 9.82198 9.41065 9.61175 9.41065C9.40151 9.41065 9.23117 9.581 9.23117 9.79123V11.5673H0.761155V8.68039L9.23112 7.70263V8.67486C9.23112 8.88509 9.40147 9.05544 9.6117 9.05544C9.82193 9.05544 9.99228 8.88509 9.99228 8.67486V0.380577C9.99228 0.170343 9.82193 0 9.6117 0H0.380577C0.170343 0 0 0.170343 0 0.380577V21.6712C0 21.6828 0.000562339 21.6945 0.00159359 21.7061C0.0651091 22.3957 0.465327 23.9993 2.80354 24C2.80392 24 2.8042 24 2.80457 24C2.80485 24 2.80514 24 2.80542 24H8.39375C8.39394 24 8.39422 24 8.39441 24C8.39473 24 8.39497 24 8.39525 24H9.61175C9.64189 24 9.67118 23.9964 9.69926 23.9899H15.8237C15.8239 23.9899 15.8242 23.9899 15.8244 23.9899C15.8246 23.9899 15.825 23.9899 15.8252 23.9899H15.8935C18.6006 23.9899 20.803 21.7875 20.803 19.0803V18.907C20.803 16.1997 18.6006 13.9974 15.8935 13.9974ZM0.761155 0.761202H9.23112V3.77793H5.37665V3.29587C5.37665 3.08563 5.2063 2.91529 4.99607 2.91529H2.07361C1.86337 2.91529 1.69303 3.08563 1.69303 3.29587V3.77793H0.761155V0.761202ZM4.61554 3.67645V4.58985H2.45418V3.67645H4.61554ZM0.761155 4.53918H1.69298V4.97052C1.69298 5.18076 1.86332 5.3511 2.07356 5.3511H4.99607C5.2063 5.3511 5.37665 5.18076 5.37665 4.97052V4.53918H9.23112V6.9365L0.761155 7.91422V4.53918ZM15.8935 14.7585C16.9525 14.7585 17.9196 15.1579 18.6534 15.8133L14.9221 21.1642L13.0106 17.6653L15.0377 14.7585H15.8935V14.7585ZM0.761155 12.3285H9.23112V14.0771L0.761155 16.0847V12.3285ZM8.19613 23.2387H3.5579L5.70116 20.3289C5.8258 20.1597 5.78966 19.9214 5.62044 19.7967C5.45122 19.6721 5.21301 19.7082 5.08827 19.8774L2.61614 23.2337C1.21495 23.1666 0.830201 22.3501 0.761202 21.653V16.867L8.69009 14.9876L5.79571 18.9171C5.67107 19.0863 5.70721 19.3246 5.87643 19.4492C5.94444 19.4993 6.02343 19.5234 6.10185 19.5234C6.21866 19.5234 6.33397 19.4698 6.4086 19.3685L9.80417 14.7585H14.1098L8.19613 23.2387ZM9.61175 23.2286C9.58161 23.2286 9.55231 23.2321 9.52423 23.2387H9.12416L12.5243 18.3628L15.1825 23.2286H9.61175V23.2286ZM20.0419 19.0802C20.0419 21.3159 18.2639 23.1432 16.0477 23.2247L15.3297 21.9104L19.1834 16.3841C19.7212 17.0837 20.0419 17.9583 20.0419 18.9069V19.0802Z" fill="#00A9FF"/>
</svg>
