<svg width="16" height="20" viewBox="0 0 16 20" fill="none" xmlns="http://www.w3.org/2000/svg">
<path d="M15.6494 15.717L10.6987 6.91558V2.24707C11.1475 2.08796 11.4697 1.65922 11.4697 1.15657C11.4697 0.518839 10.9509 0 10.3131 0H5.68685C5.04912 0 4.53028 0.518839 4.53028 1.15657C4.53028 1.65922 4.85254 2.08796 5.30133 2.24707V6.91558L0.350569 15.717C-0.124706 16.5619 -0.116263 17.5659 0.373084 18.4027C0.862392 19.2393 1.73322 19.7389 2.7025 19.7389H13.2975C14.2668 19.7389 15.1376 19.2393 15.6269 18.4027C16.1163 17.5659 16.1247 16.5619 15.6494 15.717ZM6.02287 7.20554C6.05534 7.14786 6.07238 7.08275 6.07238 7.01655V2.31315H6.4579C6.67079 2.31315 6.84343 2.14051 6.84343 1.92762C6.84343 1.71474 6.67079 1.5421 6.4579 1.5421H5.68685C5.47427 1.5421 5.30133 1.36915 5.30133 1.15657C5.30133 0.943996 5.47427 0.77105 5.68685 0.77105H10.3131C10.5257 0.77105 10.6987 0.943996 10.6987 1.15657C10.6987 1.36915 10.5257 1.5421 10.3131 1.5421H9.5421C9.32921 1.5421 9.15657 1.71474 9.15657 1.92762C9.15657 2.14051 9.32921 2.31315 9.5421 2.31315H9.92762V7.01655C9.92762 7.08279 9.94466 7.14782 9.97713 7.20554L12.2494 11.2453C10.8618 11.133 9.47887 11.4136 8.20834 12.0715C6.57502 12.9167 4.75677 13.0656 3.0423 12.5043L6.02287 7.20554ZM14.9613 18.0134C14.6118 18.611 13.9898 18.9678 13.2975 18.9678H2.7025C2.01018 18.9678 1.38817 18.611 1.03869 18.0134C0.689137 17.4157 0.683084 16.6985 1.02262 16.095L2.65755 13.1884C3.45081 13.4654 4.27059 13.6053 5.1032 13.6053C5.22646 13.6053 5.35002 13.6022 5.47381 13.5961C6.54962 13.5428 7.58888 13.2602 8.56279 12.7562C9.86555 12.0817 11.2984 11.8489 12.7181 12.0785L14.9774 16.095C15.3169 16.6985 15.3109 17.4157 14.9613 18.0134Z" fill="#00A9FF"/>
</svg>
