<svg width="278" height="140" viewBox="0 0 278 140" fill="none" xmlns="http://www.w3.org/2000/svg">
<g opacity="0.3">
<path d="M126.968 139.8L126.914 133.759C128.22 133.759 129.526 133.705 130.887 133.65H131.105C133.282 133.596 135.622 133.433 138.126 133.16L138.779 139.147C136.057 139.474 133.499 139.637 131.159 139.691H130.996C129.69 139.8 128.329 139.8 126.968 139.8ZM115.213 139.583C111.24 139.365 107.321 138.984 103.511 138.494L104.273 132.507C107.92 132.997 111.729 133.324 115.539 133.541L115.213 139.583ZM150.534 137.242L149.228 131.364C152.875 130.548 156.521 129.568 160.059 128.371L161.964 134.086C158.208 135.337 154.344 136.372 150.534 137.242ZM91.9188 136.535C88.0546 135.718 84.1904 134.739 80.4895 133.65L82.2311 127.881C85.7687 128.97 89.4152 129.895 93.1705 130.657L91.9188 136.535ZM173.012 129.841L170.563 124.344C173.992 122.82 177.366 121.133 180.577 119.282L183.57 124.507C180.142 126.412 176.604 128.208 173.012 129.841ZM64.4886 127.609C60.7877 126.14 62.0939 126.575 58.6651 124.779L61.4952 119.445C64.7607 121.187 63.2912 120.643 66.7744 122.058L64.4886 127.609ZM48.4876 118.683C45.1677 116.452 42.011 114.057 39.0177 111.499L42.9363 106.928C45.7119 109.322 48.7597 111.554 51.862 113.676L48.4876 118.683ZM193.476 118.03L189.938 113.132C192.932 110.955 195.87 108.56 198.646 106.111L202.674 110.574C199.789 113.241 196.687 115.744 193.476 118.03ZM30.4185 103.281C27.6973 100.342 25.1937 97.1855 22.9079 94.0289L27.8605 90.5457C29.9831 93.539 32.3234 96.4236 34.8814 99.1992L30.4185 103.281ZM211.109 102.247L206.647 98.2196C209.15 95.4983 211.545 92.5594 213.776 89.566L218.62 93.1581C216.28 96.3147 213.722 99.3625 211.109 102.247ZM16.7578 83.7425C14.9074 80.0961 13.3835 76.3407 12.2406 72.5854L18.0096 70.7894C19.0437 74.2182 20.4587 77.6469 22.1459 81.0213L16.7578 83.7425ZM225.206 83.3616L220.09 80.2049C221.995 77.0483 223.845 73.7283 225.532 70.354L230.92 73.0208C229.124 76.6129 227.219 80.0416 225.206 83.3616ZM9.79143 60.7208C9.62816 59.088 9.57373 57.5097 9.57373 55.9314C9.57373 53.3734 9.79143 50.8154 10.1724 48.4207L16.1047 49.4548C15.7238 51.5229 15.5605 53.6999 15.5605 55.9314C15.5605 57.292 15.6149 58.707 15.7782 60.1765L9.79143 60.7208ZM74.2851 58.3805C74.0674 55.2783 73.0333 52.0672 71.1828 48.8017L76.4076 45.8083C78.7479 49.8902 80.0541 53.9721 80.3262 57.9995L74.2851 58.3805ZM64.543 40.4747C61.985 37.9711 59.0461 35.7941 55.9438 33.9437L58.9916 28.7733C62.5293 30.8414 65.7948 33.345 68.7337 36.1751L64.543 40.4747ZM19.6424 39.6583L14.472 36.5561C16.7034 32.8007 19.5879 29.6441 23.1256 27.195L26.5543 32.1476C23.7242 34.1614 21.384 36.6649 19.6424 39.6583ZM46.0929 29.6441C42.4464 28.61 38.9632 28.2835 35.8066 28.61L35.1535 22.6233C39.0721 22.1879 43.3172 22.6233 47.7257 23.8206L46.0929 29.6441Z" fill="#76C1FF"/>
<path d="M70.5836 77.538C68.2978 75.361 66.3929 73.7283 64.4336 70.8982L69.3863 67.5238C69.7672 68.0681 70.1482 68.6123 70.638 69.1566C71.0734 68.6667 71.4544 68.1225 71.781 67.5782L76.7881 70.8982C74.9376 73.8371 72.9239 75.4699 70.5836 77.538Z" fill="#76C1FF"/>
<path d="M18.1188 139.746L17.9556 133.705C21.8197 133.596 25.7383 133.378 29.4937 132.997L30.0923 138.984C26.1737 139.419 22.1463 139.637 18.1188 139.746ZM41.957 137.406L40.9229 131.473C44.7327 130.82 48.488 129.949 52.1345 129.024L53.6584 134.848C49.8486 135.827 45.93 136.698 41.957 137.406ZM69.3872 129.623L67.319 123.963C70.9655 122.656 70.258 122.765 73.6323 121.187L76.2447 126.629C72.6527 128.317 73.1969 128.208 69.3872 129.623ZM86.8576 120.806L83.701 115.69C86.9665 113.676 90.1231 111.499 93.0621 109.159L96.763 113.894C93.6063 116.343 90.2864 118.683 86.8576 120.806ZM105.852 105.893L101.607 101.648C104.328 98.9271 106.832 96.097 109.117 93.1036L113.907 96.7501C111.403 99.9067 108.736 102.955 105.852 105.893ZM120.601 86.5726L115.376 83.6336C117.281 80.2593 118.86 76.8305 120.111 73.4017L125.771 75.4699C124.356 79.2252 122.615 82.9805 120.601 86.5726ZM128.819 63.5508L122.887 62.6256C123.268 60.2309 123.431 57.8906 123.431 55.6592C123.431 54.2986 123.377 52.9379 123.214 51.6862L129.2 51.0875C129.364 52.557 129.418 54.1353 129.418 55.7136C129.472 58.2172 129.255 60.884 128.819 63.5508ZM66.4482 58.1627L60.4071 58.1083V57.9995C60.4071 53.8632 61.4956 49.618 63.6726 45.4817L69.0062 48.2574C67.2646 51.5773 66.3938 54.8428 66.3938 57.9995L66.4482 58.1627ZM120.438 41.3998C118.86 38.1888 116.737 35.4131 114.016 33.2905L117.825 28.61C121.2 31.3312 123.921 34.76 125.88 38.7874L120.438 41.3998ZM75.5372 39.7127L71.3465 35.4131C74.3399 32.5286 77.7142 29.9706 81.3607 27.9024L84.2996 33.1272C81.0886 34.9777 78.1496 37.2091 75.5372 39.7127ZM94.4227 29.1542L93.0621 23.2763C97.5793 22.2422 101.988 22.1334 105.961 22.8953L104.818 28.8277C101.661 28.229 98.1236 28.3378 94.4227 29.1542Z" fill="#76C1FF"/>
<path d="M6.03591 139.691C4.13104 139.637 2.22616 139.528 0.321289 139.365L0.756689 133.378C2.60714 133.487 4.45759 133.596 6.30804 133.65L6.03591 139.691Z" fill="#76C1FF"/>
<path d="M232.826 53.9719L218.077 57.7272L216.934 60.8839L230.975 62.4622L232.826 53.9719Z" fill="#FF902C"/>
<path d="M237.235 55.55L246.106 67.959L244.909 71.1156L233.208 63.224L237.235 55.55Z" fill="#FF6510"/>
<path d="M209.967 37.5355C209.695 38.243 208.933 38.5696 208.28 38.3519C207.572 38.0797 207.245 37.3178 207.463 36.6647L209.967 29.8616C210.239 29.154 211.001 28.8275 211.654 29.0452C212.361 29.3173 212.688 30.0793 212.47 30.7324L209.967 37.5355Z" fill="#FF902C"/>
<path d="M220.635 38.7874C220.363 39.495 219.601 39.8215 218.948 39.6038C218.24 39.3317 217.913 38.5697 218.131 37.9166L220.635 31.1135C220.907 30.406 221.669 30.0794 222.322 30.2971C223.029 30.5693 223.356 31.3312 223.138 31.9843L220.635 38.7874Z" fill="#FF902C"/>
<path d="M231.356 39.9845C231.084 40.692 230.322 41.0185 229.669 40.8008C228.962 40.5287 228.635 39.7668 228.853 39.1137L231.356 32.3105C231.628 31.603 232.39 31.2765 233.044 31.4942C233.751 31.7663 234.078 32.5282 233.86 33.1813L231.356 39.9845Z" fill="#FF902C"/>
<path d="M265.318 57.8359C265.046 58.5434 265.427 59.3054 266.134 59.5231C266.842 59.7952 267.604 59.4142 267.821 58.7067L270.325 51.9036C270.597 51.1961 270.216 50.4341 269.508 50.2164C268.801 49.9443 268.039 50.3253 267.821 51.0328L265.318 57.8359Z" fill="#FF902C"/>
<path d="M256.338 51.8492C256.066 52.5568 256.447 53.3187 257.154 53.5364C257.862 53.8085 258.624 53.4276 258.841 52.72L261.345 45.9169C261.617 45.2094 261.236 44.4474 260.528 44.2297C259.821 43.9576 259.059 44.3386 258.841 45.0461L256.338 51.8492Z" fill="#FF902C"/>
<path d="M247.411 45.8625C247.139 46.5701 247.52 47.332 248.228 47.5497C248.935 47.8218 249.697 47.4409 249.915 46.7333L252.419 39.9302C252.691 39.2227 252.31 38.4607 251.602 38.243C250.895 37.9709 250.133 38.3519 249.915 39.0594L247.411 45.8625Z" fill="#FF902C"/>
<path d="M220.525 19.521L219.056 23.6029C218.784 24.4192 218.893 25.29 219.382 25.9976L220.362 27.467L223.356 26.6507L225.315 21.317L220.525 19.521Z" fill="#76C1FF"/>
<path d="M231.03 18.4871L229.56 22.5689C229.288 23.3853 229.397 24.2561 229.833 24.9636L230.812 26.4331L233.806 25.6167L235.765 20.2831L231.03 18.4871Z" fill="#76C1FF"/>
<path d="M242.786 23.0043L237.234 38.1888L230.758 35.7941L198.538 32.6919C200.443 29.372 201.15 27.195 203.926 26.9229L242.786 23.0043Z" fill="#FFD546"/>
<path d="M268.854 37.2634L267.385 41.3453C267.113 42.1617 266.459 42.7604 265.643 42.9781L263.956 43.4135L262.214 40.8555L264.174 35.5219L268.854 37.2634Z" fill="#76C1FF"/>
<path d="M261.508 29.6439L260.038 33.7258C259.766 34.5422 259.113 35.1409 258.296 35.3586L256.609 35.794L254.868 33.236L256.827 27.9023L261.508 29.6439Z" fill="#76C1FF"/>
<path d="M249.643 25.5077L244.092 40.6923L250.568 43.087L277.182 61.537C277.89 57.7817 278.761 55.6591 276.801 53.6454L249.643 25.5077Z" fill="#FFAC1A"/>
<path d="M255.031 0.199951L231.628 64.1493C229.887 62.19 231.03 57.2373 234.622 45.4815C236.581 39.0594 239.302 30.5691 242.731 19.412C246.758 6.67653 249.861 0.308801 255.031 0.199951Z" fill="#FF9912"/>
<path d="M255.03 0.199829L231.627 64.1492C234.239 63.7682 236.58 59.3054 241.369 47.985C244.036 41.7805 247.41 33.5624 251.982 22.8406C257.152 10.4862 258.948 3.6286 255.03 0.199829Z" fill="#FF6010"/>
<path d="M231.465 68.0135C231.247 68.6122 230.539 68.9387 229.941 68.721C229.342 68.5033 229.015 67.7958 229.233 67.1971L232.88 57.2374C233.097 56.6387 233.805 56.3121 234.404 56.5298C235.002 56.7475 235.329 57.4551 235.111 58.0537L231.465 68.0135Z" fill="#EF2C06"/>
</g>
</svg>
