<svg width="18" height="18" viewBox="0 0 18 18" fill="none" xmlns="http://www.w3.org/2000/svg">
<path d="M17.5384 14.568L3.43182 0.461421C2.81659 -0.153807 1.81915 -0.153807 1.20489 0.461421L0.461421 1.20373C-0.153807 1.81915 -0.153807 2.81659 0.461421 3.43086L14.568 17.5375C15.1835 18.1527 16.1809 18.1527 16.7952 17.5375L17.5375 16.7952C18.1539 16.1809 18.1539 15.1833 17.5384 14.568Z" fill="#F44336"/>
<path d="M14.568 0.461521L0.461421 14.5681C-0.153807 15.1834 -0.153807 16.181 0.461421 16.7953L1.20373 17.5376C1.81915 18.1528 2.81659 18.1528 3.43086 17.5376L17.5384 3.43192C18.1539 2.81669 18.1539 1.81925 17.5384 1.20499L16.7961 0.462675C16.1809 -0.153707 15.1835 -0.153707 14.568 0.461521Z" fill="#F44336"/>
</svg>
