<svg width="144" height="36" viewBox="0 0 144 36" fill="none" xmlns="http://www.w3.org/2000/svg">
<g clip-path="url(#clip0)" filter="url(#filter0_d)">
<path d="M71.575 4.86731C71.575 5.19518 71.3198 5.45177 70.9937 5.45177H68.5266C68.2005 5.45177 67.9453 5.19518 67.9453 4.86731V2.35839C67.9453 2.07329 68.2005 1.77393 68.5266 1.77393H70.9937C71.3198 1.77393 71.575 2.05903 71.575 2.35839V4.86731ZM71.4758 26.8061C71.4758 27.2052 71.1497 27.5331 70.7527 27.5331H68.8669C68.4699 27.5331 68.1438 27.2052 68.1438 26.8061V10.0419C68.1438 9.6428 68.4699 9.31493 68.8669 9.31493H70.7527C71.1497 9.31493 71.4758 9.6428 71.4758 10.0419V26.8061Z" fill="white"/>
<path d="M81.7553 15.5381C78.2107 14.7399 75.7011 12.5446 75.7011 8.58161C75.7011 4.20526 79.43 1.72485 83.1731 1.72485C87.455 1.72485 90.6026 4.81823 90.6026 8.58161V9.05203C90.6026 9.45118 90.2765 9.77905 89.8795 9.77905H87.8804C87.4834 9.77905 87.1573 9.45118 87.1573 9.05203V8.58161C87.1573 6.14397 85.0163 5.18887 83.1731 5.18887C80.8195 5.18887 79.189 6.50035 79.189 8.58161C79.189 11.789 82.2657 12.1169 84.6193 12.7014C88.7453 13.7277 91.3258 16.0513 91.3258 20.2424C91.3258 24.9038 87.37 27.8261 83.1731 27.8261C78.4942 27.8261 75.0205 24.4049 75.0205 20.2424V19.6579C75.0205 19.2588 75.3466 18.9309 75.7436 18.9309H77.7711C78.1681 18.9309 78.4942 19.2588 78.4942 19.6579V20.2424C78.4942 22.6087 80.4509 24.3621 83.1731 24.3621C85.8954 24.3621 87.852 22.5802 87.852 20.2424C87.852 16.8496 85.4275 16.3792 81.7553 15.5381Z" fill="white"/>
<path d="M94.048 15.866C94.3315 12.0456 97.1247 8.93799 101.478 8.93799C105.83 8.93799 108.623 12.0314 108.907 15.866C109.02 17.32 109.02 19.5154 108.907 20.9694C108.623 24.7898 105.83 27.8974 101.478 27.8974C97.1247 27.8974 94.3315 24.804 94.048 20.9694C93.9345 19.5154 93.9345 17.3343 94.048 15.866ZM97.309 20.9694C97.4508 22.8938 98.9821 24.6187 101.478 24.6187C103.973 24.6187 105.504 22.9081 105.646 20.9694C105.759 19.4726 105.759 17.3628 105.646 15.866C105.504 13.9416 103.973 12.2167 101.478 12.2167C98.9821 12.2167 97.4508 13.9273 97.309 15.866C97.1956 17.3628 97.1956 19.4726 97.309 20.9694Z" fill="white"/>
<path d="M120.364 4.94649C118.45 4.94649 116.918 6.77116 116.918 8.59582V9.13752C116.918 9.35135 117.06 9.50816 117.287 9.50816H120.973C121.37 9.50816 121.696 9.83603 121.696 10.2352V12.0598C121.696 12.459 121.37 12.7869 120.973 12.7869H117.273C117.06 12.7869 116.904 12.9294 116.904 13.1575V26.7997C116.904 27.1989 116.578 27.5267 116.181 27.5267H114.366C113.969 27.5267 113.643 27.1989 113.643 26.7997V13.1432C113.643 12.9294 113.501 12.7726 113.274 12.7726H110.552C110.155 12.7726 109.829 12.4447 109.829 12.0456V10.2209C109.829 9.82177 110.155 9.4939 110.552 9.4939H113.274C113.487 9.4939 113.643 9.35135 113.643 9.12327V8.58157C113.643 4.76117 116.535 1.76758 120.349 1.76758H120.718C121.115 1.76758 121.441 2.09545 121.441 2.49459V4.20522C121.441 4.60436 121.115 4.93223 120.718 4.93223H120.364V4.94649Z" fill="white"/>
<path d="M137.278 2.02417H139.277C139.674 2.02417 140.001 2.35204 140.001 2.75119V26.7997C140.001 27.1989 139.674 27.5267 139.277 27.5267H137.278C136.881 27.5267 136.555 27.1989 136.555 26.7997V13.0149C136.555 12.8011 136.413 12.6443 136.187 12.6443H128.218C128.006 12.6443 127.85 12.7869 127.85 13.0149V26.7997C127.85 27.1989 127.524 27.5267 127.127 27.5267H125.127C124.73 27.5267 124.404 27.1989 124.404 26.7997V2.75119C124.404 2.35204 124.73 2.02417 125.127 2.02417H127.127C127.524 2.02417 127.85 2.35204 127.85 2.75119V8.80965C127.85 9.02348 127.991 9.18028 128.218 9.18028H136.187C136.399 9.18028 136.555 9.03773 136.555 8.80965V2.75119C136.555 2.35204 136.881 2.02417 137.278 2.02417Z" fill="white"/>
<path d="M24.6869 16.8496C24.6869 16.8496 31.1239 13.5281 38.6811 8.72411C48.4217 2.53735 56.3616 5.1603 57.2265 12.6158C58.0064 19.2872 51.2149 25.6593 41.2474 20.2138L32.3433 22.908C39.3616 26.5574 43.8988 27.8546 48.209 27.8546C56.149 27.8546 62.6002 21.9672 62.6002 13.97C62.6002 5.98711 56.1631 0.0854492 48.209 0.0854492C40.2691 0.0854492 18.6185 13.7134 18.6185 13.7134C18.6185 13.7134 14.606 15.5238 13.0605 13.97C13.0605 13.97 16.0664 20.1995 24.6869 16.8496Z" fill="url(#paint0_linear)"/>
<path d="M19.4971 15.2389C22.985 14.1127 25.3528 7.64087 25.3528 7.64087C21.2836 10.5632 18.7598 15.9231 13.0459 13.9844C14.7048 14.8825 16.0092 16.3651 19.4971 15.2389Z" fill="#783342"/>
<path d="M47.9817 14.1269C47.9817 14.1269 52.0083 12.3308 53.5538 13.8846C53.5538 13.8846 50.548 7.65505 41.9274 11.005C41.9274 11.005 35.4904 14.3265 27.9333 19.1305C18.1927 25.3173 10.2527 22.6943 9.38782 15.2388C8.60801 8.56738 15.3995 2.1953 25.367 7.64079C25.367 7.64079 22.9992 14.1127 19.5113 15.2388C16.0234 16.365 14.7189 14.8824 13.0742 13.9844C18.8307 21.169 27.5788 9.02355 34.2143 4.97507C27.1818 1.32573 22.7014 0 18.3912 0C10.437 0 4 5.8874 4 13.8846C4 21.8675 10.437 27.7691 18.3912 27.7691C26.3311 27.7549 47.9817 14.1269 47.9817 14.1269Z" fill="url(#paint1_linear)"/>
<path d="M47.1026 12.6015C50.5905 11.4753 51.8949 12.9579 53.5396 13.856C47.7831 6.67134 38.9783 18.8453 32.3428 22.8938L41.2469 20.1995C41.2469 20.1995 43.6147 13.7277 47.1026 12.6015Z" fill="url(#paint2_linear)"/>
<path d="M47.1028 12.6017C43.6149 13.7278 41.2471 20.1997 41.2471 20.1997C45.3163 17.2774 47.8401 11.9174 53.554 13.8561C51.8951 12.958 50.5907 11.4898 47.1028 12.6017Z" fill="#3D6284"/>
<path opacity="0.8" d="M34.3418 23.9059C40.2542 26.7854 44.3376 27.8546 48.2225 27.8546C54.6312 27.8546 60.0474 24.0199 61.9189 18.3606C58.5445 22.7512 50.8739 28.211 34.3418 23.9059Z" fill="url(#paint3_linear)"/>
<path opacity="0.8" d="M32.3432 4.03429C26.445 1.15474 22.3616 0.0998535 18.4767 0.0998535C12.068 0.0998535 6.65183 3.93451 4.78027 9.59383C8.14057 5.18897 15.8253 -0.256527 32.3432 4.03429Z" fill="url(#paint4_linear)"/>
</g>
<defs>
<filter id="filter0_d" x="0" y="0" width="144" height="35.8974" filterUnits="userSpaceOnUse" color-interpolation-filters="sRGB">
<feFlood flood-opacity="0" result="BackgroundImageFix"/>
<feColorMatrix in="SourceAlpha" type="matrix" values="0 0 0 0 0 0 0 0 0 0 0 0 0 0 0 0 0 0 127 0"/>
<feOffset dy="4"/>
<feGaussianBlur stdDeviation="2"/>
<feColorMatrix type="matrix" values="0 0 0 0 0 0 0 0 0 0 0 0 0 0 0 0 0 0 0.25 0"/>
<feBlend mode="normal" in2="BackgroundImageFix" result="effect1_dropShadow"/>
<feBlend mode="normal" in="SourceGraphic" in2="effect1_dropShadow" result="shape"/>
</filter>
<linearGradient id="paint0_linear" x1="64.9612" y1="13.5148" x2="15.1728" y2="14.8636" gradientUnits="userSpaceOnUse">
<stop stop-color="#4DB1E4"/>
<stop offset="1" stop-color="#2585C1"/>
</linearGradient>
<linearGradient id="paint1_linear" x1="38.861" y1="13.9608" x2="2.82765" y2="13.8163" gradientUnits="userSpaceOnUse">
<stop stop-color="#F1667E"/>
<stop offset="1" stop-color="#ED4165"/>
</linearGradient>
<linearGradient id="paint2_linear" x1="65.0444" y1="16.6026" x2="15.256" y2="17.9514" gradientUnits="userSpaceOnUse">
<stop stop-color="#4DB1E4"/>
<stop offset="1" stop-color="#2585C1"/>
</linearGradient>
<linearGradient id="paint3_linear" x1="65.2128" y1="22.8267" x2="15.4244" y2="24.1755" gradientUnits="userSpaceOnUse">
<stop stop-color="white"/>
<stop offset="1" stop-color="#2585C1"/>
</linearGradient>
<linearGradient id="paint4_linear" x1="1.47618" y1="5.11678" x2="51.2646" y2="3.76796" gradientUnits="userSpaceOnUse">
<stop stop-color="white"/>
<stop offset="1" stop-color="#2585C1"/>
</linearGradient>
<clipPath id="clip0">
<rect width="136" height="27.8974" fill="white" transform="translate(4)"/>
</clipPath>
</defs>
</svg>
