<svg width="16" height="19" viewBox="0 0 16 19" fill="none" xmlns="http://www.w3.org/2000/svg">
<path d="M15.0784 10.637C14.5905 9.51404 13.9167 8.42594 13.0649 7.40755C12.0349 6.16844 11.0087 5.33979 10.486 4.95644L12.4608 1.29332C12.5576 1.11133 12.5266 0.886738 12.3756 0.743466C11.8645 0.24395 11.3224 0 10.7183 0C10.1646 0 9.65731 0.2091 9.21588 0.394966C8.86738 0.538238 8.53824 0.677638 8.27106 0.677638C8.18974 0.677638 8.12004 0.666021 8.05034 0.638916C7.12875 0.302033 6.42014 0.0929332 5.73475 0.0929332C4.86738 0.0929332 4.12778 0.441433 3.40368 1.1849C3.25266 1.33979 3.22943 1.58374 3.34947 1.76573L5.47919 4.98354C4.95257 5.37464 3.94579 6.19555 2.93514 7.40755C2.08712 8.42594 1.40949 9.51404 0.921588 10.637C0.309777 12.0503 0 13.5257 0 15.0203C0 17.0068 1.61859 18.6254 3.60503 18.6254H12.395C14.3814 18.6254 16 17.0068 16 15.0203C16 13.5257 15.6902 12.0503 15.0784 10.637ZM4.34075 1.57212C4.78993 1.1849 5.21975 1.01452 5.73475 1.01452C6.28461 1.01452 6.90416 1.20039 7.72895 1.50629C7.89932 1.56825 8.08132 1.59923 8.26718 1.59923C8.72023 1.59923 9.15392 1.4211 9.56825 1.24685C9.96709 1.08035 10.3466 0.921587 10.7144 0.921587C10.8925 0.921587 11.1442 0.952565 11.4618 1.17715L9.6031 4.63117H6.36592L4.34075 1.57212ZM12.395 17.696H3.60503C2.12972 17.696 0.929332 16.4956 0.929332 15.0203C0.929332 12.5382 1.8393 10.1839 3.62827 8.02323C4.75895 6.65634 5.909 5.80832 6.2575 5.5605H9.73475C10.0871 5.80445 11.2333 6.65634 12.364 8.02323C14.1568 10.1839 15.0629 12.5344 15.0629 15.0203C15.0707 16.4956 13.8703 17.696 12.395 17.696Z" fill="#FF5579"/>
<rect x="7.67041" y="8.24678" width="0.851888" height="7.82188" rx="0.425944" fill="#FF5579"/>
<rect x="12.0078" y="11.7321" width="0.851888" height="7.82188" rx="0.425944" transform="rotate(90 12.0078 11.7321)" fill="#FF5579"/>
</svg>
