<svg width="22" height="22" viewBox="0 0 22 22" fill="none" xmlns="http://www.w3.org/2000/svg">
<path d="M13.75 16.4999H6.87549V17.8751H13.75V16.4999Z" fill="#00A9FF"/>
<path d="M5.50054 1.37506H16.5V4.12503H17.8748V1.37506C17.8749 0.616411 17.2599 0 16.5 0H5.50054C4.74117 0 4.12549 0.616411 4.12549 1.37506V4.12503H5.50054V1.37506Z" fill="#00A9FF"/>
<path d="M15.1248 13.75H6.87549V15.125H15.1248V13.75Z" fill="#00A9FF"/>
<path d="M20.625 5.50003H1.37555C0.616174 5.50003 0.000488281 6.11626 0.000488281 6.87495V15.125C0.000488281 15.8849 0.616174 16.4998 1.37555 16.4998H4.12552V20.6249C4.12552 21.385 4.74121 21.9999 5.50058 21.9999H16.5001C17.26 21.9999 17.8749 21.385 17.8749 20.6249V16.4998H20.6249C21.3848 16.4998 21.9998 15.8849 21.9998 15.125V6.87495C21.9998 6.11626 21.3849 5.50003 20.625 5.50003ZM16.5001 20.625H5.50058V12.3749H16.5001V20.625ZM19.2497 9.62506C18.4898 9.62506 17.8749 9.01006 17.8749 8.25001C17.8749 7.49141 18.4898 6.87495 19.2497 6.87495C20.0099 6.87495 20.625 7.49136 20.625 8.25001C20.625 9.01001 20.0098 9.62506 19.2497 9.62506Z" fill="#00A9FF"/>
</svg>
