<svg width="18" height="17" viewBox="0 0 18 17" fill="none" xmlns="http://www.w3.org/2000/svg">
<path d="M11.2496 12.531H5.625V13.5532H11.2496V12.531Z" fill="white"/>
<path d="M4.50005 1.28935H13.4996V3.33329H14.6245V1.28935C14.6245 0.725486 14.1214 0.267334 13.4996 0.267334H4.50005C3.87874 0.267334 3.375 0.725486 3.375 1.28935V3.33329H4.50005V1.28935Z" fill="white"/>
<path d="M12.3744 10.4871H5.625V11.5091H12.3744V10.4871Z" fill="white"/>
<path d="M16.8746 4.35522H1.12505C0.503743 4.35522 0 4.81324 0 5.37714V11.5091C0 12.0738 0.503743 12.5309 1.12505 12.5309H3.37503V15.5969C3.37503 16.1619 3.87877 16.6189 4.50007 16.6189H13.4997C14.1214 16.6189 14.6245 16.1619 14.6245 15.5969V12.5309H16.8745C17.4963 12.5309 17.9994 12.0738 17.9994 11.5091V5.37714C17.9994 4.81324 17.4963 4.35522 16.8746 4.35522ZM13.4997 15.5969H4.50007V9.46502H13.4997V15.5969ZM15.7494 7.42118C15.1276 7.42118 14.6245 6.96408 14.6245 6.39916C14.6245 5.83533 15.1276 5.37714 15.7494 5.37714C16.3713 5.37714 16.8746 5.8353 16.8746 6.39916C16.8746 6.96404 16.3713 7.42118 15.7494 7.42118Z" fill="white"/>
</svg>
