<svg width="18" height="18" viewBox="0 0 18 18" fill="none" xmlns="http://www.w3.org/2000/svg">
<g opacity="0.5">
<path d="M11.2498 13.4999H5.625V14.6251H11.2498V13.4999Z" fill="black"/>
<path d="M4.50008 1.12505H13.5V3.37503H14.6248V1.12505C14.6249 0.504337 14.1217 0 13.5 0H4.50008C3.87876 0 3.375 0.504337 3.375 1.12505V3.37503H4.50008V1.12505Z" fill="black"/>
<path d="M12.3746 11.25H5.625V12.375H12.3746V11.25Z" fill="black"/>
<path d="M16.8751 4.50003H1.12508C0.503759 4.50003 0 5.00422 0 5.62497V12.375C0 12.9968 0.503759 13.4999 1.12508 13.4999H3.37514V16.875C3.37514 17.4969 3.8789 18 4.50022 18H13.5001C14.1218 18 14.625 17.4969 14.625 16.875V13.4999H16.8751C17.4969 13.4999 18 12.9968 18 12.375V5.62497C18 5.00422 17.4969 4.50003 16.8751 4.50003ZM13.5001 16.875H4.50022V10.1249H13.5001V16.875ZM15.7499 7.87507C15.1281 7.87507 14.625 7.37188 14.625 6.75002C14.625 6.12935 15.1281 5.62497 15.7499 5.62497C16.3719 5.62497 16.8751 6.12931 16.8751 6.75002C16.8751 7.37185 16.3718 7.87507 15.7499 7.87507Z" fill="black"/>
</g>
</svg>
