<svg width="20" height="20" viewBox="0 0 20 20" fill="none" xmlns="http://www.w3.org/2000/svg">
<path d="M14.905 8.8678C13.2179 10.3943 11.5978 11.8702 10.0335 13.2754C8.43575 11.8298 6.80447 10.3639 5.15084 8.8678C6.06704 8.8678 6.98324 8.84758 7.89944 8.87791C8.3352 8.88801 8.46927 8.78692 8.4581 8.38256C8.43575 6.5326 8.44693 4.67253 8.44693 2.82257C8.4581 1.42752 8.98324 0.952393 10.5475 0.952393C13.0279 0.952393 15.4972 0.952393 17.9777 0.952393C19.4302 0.952393 20 1.46796 20.0112 2.79224C20.0112 7.61427 20.0112 12.4262 20.0112 17.2482C20.0112 18.5321 19.4302 19.0577 18.0112 19.0577C12.6816 19.0577 7.36313 19.0577 2.03352 19.0577C0.569833 19.0476 0 18.522 0 17.2078C0 12.3858 0 7.57383 0 2.75181C0 1.47806 0.592179 0.952393 2.01117 0.952393C3.12849 0.952393 3.12849 0.952393 3.12849 1.9633C3.12849 6.41129 3.12849 10.8593 3.12849 15.3073C3.12849 16.1261 3.24022 16.2171 4.1676 16.2171C8.18994 16.2171 12.2123 16.207 16.2346 16.2272C16.7598 16.2272 16.8939 16.0756 16.8939 15.6207C16.8715 11.8601 16.8715 8.10962 16.8939 4.34904C16.8939 3.91435 16.771 3.76271 16.2682 3.77282C14.905 3.80315 13.5531 3.79304 12.1899 3.77282C11.7318 3.76271 11.5531 3.88402 11.5531 4.3086C11.5642 5.70366 11.5642 7.10882 11.5531 8.50387C11.5531 8.79703 11.6648 8.87791 11.9665 8.8678C12.9274 8.85769 13.8883 8.8678 14.905 8.8678Z" fill="white"/>
</svg>
