<svg width="15" height="18" viewBox="0 0 15 18" fill="none" xmlns="http://www.w3.org/2000/svg">
<path d="M1.74963 16.4397C1.7722 16.9053 2.2158 17.2727 2.75526 17.2727H12.1515C12.691 17.2727 13.1346 16.9053 13.1572 16.4397L13.8282 4.20599H1.07861L1.74963 16.4397ZM9.57895 7.24464C9.57895 7.0497 9.76197 6.8916 9.98778 6.8916H10.6417C10.8673 6.8916 11.0505 7.04966 11.0505 7.24464V14.2341C11.0505 14.429 10.8675 14.5871 10.6417 14.5871H9.98778C9.76207 14.5871 9.57895 14.4291 9.57895 14.2341V7.24464ZM6.71768 7.24464C6.71768 7.0497 6.9007 6.8916 7.12646 6.8916H7.78034C8.00601 6.8916 8.18912 7.04966 8.18912 7.24464V14.2341C8.18912 14.429 8.00615 14.5871 7.78034 14.5871H7.12646C6.90074 14.5871 6.71768 14.4291 6.71768 14.2341V7.24464ZM3.85631 7.24464C3.85631 7.0497 4.03933 6.8916 4.26509 6.8916H4.91902C5.14473 6.8916 5.3278 7.04966 5.3278 7.24464V14.2341C5.3278 14.429 5.14478 14.5871 4.91902 14.5871H4.26509C4.03937 14.5871 3.85631 14.4291 3.85631 14.2341V7.24464Z" fill="#FF5579"/>
<path d="M14.2748 0.889804H9.93999V0.182037C9.93999 0.0815256 9.84565 0 9.72922 0H5.1772C5.06082 0 4.96647 0.0815256 4.96647 0.182037V0.889762H0.631605C0.282754 0.889762 0 1.134 0 1.43528V3.14897H14.9064V1.43532C14.9064 1.13404 14.6237 0.889804 14.2748 0.889804Z" fill="#FF5579"/>
</svg>
