<svg width="16" height="16" viewBox="0 0 16 16" fill="none" xmlns="http://www.w3.org/2000/svg">
<path d="M0.434921 13.4611C-0.144913 14.0409 -0.145035 14.9844 0.434921 15.5643C0.715804 15.8453 1.08934 16 1.48656 16H1.48668C1.88389 16 2.25743 15.8453 2.53831 15.5643L4.58348 13.5193L2.48009 11.4159L0.434921 13.4611Z" fill="white"/>
<path d="M14.126 1.87243C12.9186 0.665039 11.3131 0 9.60534 0C7.8977 0 6.29223 0.665039 5.08472 1.87243C3.87707 3.08008 3.21204 4.68567 3.21204 6.39331C3.21204 7.59362 3.54102 8.74303 4.15552 9.73962L3.14453 10.7507L5.24792 12.8541L6.25891 11.8431C7.25549 12.4578 8.40502 12.7867 9.60534 12.7867C11.313 12.7867 12.9184 12.1216 14.1261 10.9139C15.3337 9.70641 15.9986 8.10095 15.9986 6.39331C15.9986 4.68567 15.3336 3.08008 14.126 1.87243ZM13.1287 9.91637C12.1887 10.8563 10.9376 11.3739 9.60559 11.3739C8.27343 11.3739 7.02234 10.8563 6.08252 9.9165C4.13977 7.97375 4.13977 4.81274 6.08239 2.87011C7.02209 1.93042 8.27319 1.41296 9.60534 1.41296C10.9375 1.41296 12.1886 1.93042 13.1282 2.86999C13.1283 2.87011 13.1284 2.87024 13.1285 2.87024C13.1285 2.87036 13.1287 2.87036 13.1287 2.87048L13.1288 2.8706C15.0713 4.81311 15.0712 7.97387 13.1287 9.91637Z" fill="white"/>
<path d="M12.4645 3.53564C12.4644 3.53552 12.4644 3.53552 12.4643 3.5354C12.4642 3.53528 12.4642 3.53516 12.464 3.53516C11.7021 2.77307 10.6872 2.35352 9.60624 2.35352C8.52531 2.35352 7.51042 2.77319 6.74834 3.53516C5.17241 5.11108 5.17241 7.67541 6.74846 9.25146C7.51066 10.0135 8.52556 10.4332 9.60649 10.4332C10.6873 10.4332 11.7023 10.0134 12.4644 9.25134C14.0403 7.67553 14.0403 5.11145 12.4645 3.53564ZM10.9472 6.86364H10.0767V7.73413C10.0767 7.99377 9.86613 8.20434 9.60637 8.20434C9.3466 8.20434 9.13603 7.99377 9.13603 7.73413V6.86364H8.26555C8.00578 6.86364 7.79533 6.65307 7.79533 6.39331C7.79533 6.13354 8.00578 5.92297 8.26555 5.92297H9.13603V5.05249C9.13603 4.79272 9.3466 4.58215 9.60637 4.58215C9.86613 4.58215 10.0767 4.79272 10.0767 5.05249V5.92297H10.9472C11.207 5.92297 11.4174 6.13354 11.4174 6.39331C11.4174 6.65307 11.207 6.86364 10.9472 6.86364Z" fill="white"/>
</svg>
